<svg xmlns="http://www.w3.org/2000/svg" viewBox="0 0 64 64"><path fill="#ff9909" d="M32,2A30,30,0,1,0,62,32,30,30,0,0,0,32,2Zm0,54.41A24.41,24.41,0,1,1,56.41,32,24.41,24.41,0,0,1,32,56.41Z"/><circle cx="32" cy="32" r="24.41" fill="#fbcb00" transform="rotate(-22.5 31.996 32)"/><path fill="#e6e7e8" d="M36.56,30H27.44a2,2,0,0,1-2-2V23.18a2,2,0,0,1,2-2h14.5v-4H34V13.54H30v3.68H27.44a6,6,0,0,0-6,6V28a6,6,0,0,0,6,6h9.12a2,2,0,0,1,2,2v4.86a2,2,0,0,1-2,2H22.06v4H30v3.68h4V46.78h2.56a6,6,0,0,0,6-6V36A6,6,0,0,0,36.56,30Z"/></svg>